<?xml version="1.0" encoding="utf-8"?>
<!-- Generator: Adobe Illustrator 28.0.0, SVG Export Plug-In . SVG Version: 6.00 Build 0)  -->
<svg version="1.1" id="Layer_1" xmlns="http://www.w3.org/2000/svg" xmlns:xlink="http://www.w3.org/1999/xlink" x="0px" y="0px"
	 viewBox="0 0 1510.1 1510.1" style="enable-background:new 0 0 1510.1 1510.1;" xml:space="preserve">
<style type="text/css">
	.st0{fill:#6EDA78;}
	.st1{fill:#282828;}
	.st2{fill-rule:evenodd;clip-rule:evenodd;fill:#282828;}
</style>
<path class="st0" d="M858.5,832.5c0,14.1-10.4,25.3-25.2,25.3c-14.3,0-24.9-11.2-24.9-25.3s10.6-26.1,24.9-26.1
	C848.1,806.4,858.5,818.3,858.5,832.5z"/>
<g>
	<path class="st1" d="M106.3,854.5V736.6l33.7-8.2l-5.1,38h3.7c2.1-8.8,5.4-16.2,9.8-22.4c4.5-6.1,10.3-10.8,17.2-13.9
		c7.1-3.3,15.3-5,24.7-5c12.2,0,22.7,2.8,31.6,8.4c8.8,5.5,15.6,13.5,20.3,24.1c4.9,10.5,7.2,22.9,7.2,37.5v59.3h-33.5v-50.4
		c0-9.8-1.5-18-4.4-24.8c-3-7-7.3-12.2-13-15.7c-5.7-3.7-12.5-5.5-20.5-5.5c-11.9,0-21.2,4-28,11.9c-6.7,7.9-10,19.2-10,34.1v50.4
		H106.3z"/>
	<path class="st2" d="M317.6,857.8c-17.1,0-31.7-3.4-39.8-10.2c-8.1-7-12.2-16.3-12.2-28c0-11.4,4.1-20.6,12.2-27.3
		c21.9-18.8,90.2-11.6,94.6-10.1c0-2.9-0.2-7.8-3-12.5c-6.9-12-21.2-17.2-34-17.2c-10.7,0-22,5.3-28.7,13.4
		c-2.6,3.2-4.8,7.9-4.8,7.9h-32c0.5-6.1,4-16,9.3-23.5c5.2-7.6,13.4-14,23.5-18.5c10.3-4.6,18-6.6,33.1-6.6
		c15.7,0,27.7,2.6,38.2,7.9c10.5,5.3,18.4,12.7,23.4,22.4c5.1,9.6,7.7,20.9,7.7,33.8v20.3v45.3h-32.8l5.2-26.9H374
		c-1.7,7.4-4.7,13-8.4,17.1c-3.7,4.1-8.5,6.6-17,9.1C340.3,856.5,330,857.8,317.6,857.8L317.6,857.8z M297.4,817.4
		c-1.7-28.7,67.1-20.3,75-19.3c0,4.2-0.3,8.3-1.2,12.2c-5.1,20.3-33.2,24.7-50.5,23.2C308,832.2,298,827.6,297.4,817.4L297.4,817.4z
		"/>
	<path class="st1" d="M424.6,737.6v117h33.7v-62.6c0-10.6,2.4-18.9,7.2-24.8c4.9-5.9,11.4-9,19.6-9c5.6,0,10.3,1.3,14.3,4
		c4.1,2.6,7.2,6.5,9.4,11.7c2.3,5,3.4,11,3.4,18.1v62.6h33.5v-62.6c0-10.6,2.4-18.9,7.2-24.8c5-5.9,11.6-9,19.9-9
		c5.6,0,10.3,1.3,14.3,4c4.1,2.6,7.2,6.5,9.4,11.7c2.1,5,3.2,11,3.2,18.1v62.6h33.7V783c0-12.3-1.9-22.6-5.7-31.3
		c-3.7-8.8-9-15.4-15.8-19.9c-6.8-4.4-14.9-6.7-24.3-6.7c-11.4,0-20.7,3-28,9.2c-7.1,5.9-12.2,14.9-15.2,26.8h-3
		c-1-6.8-3.3-12.8-6.8-18.1c-3.6-5.5-8.4-9.8-14.3-12.9c-5.8-3.3-12.8-5-20.9-5c-11.1,0-20.1,3-27.1,9c-7,5.8-11.9,14.4-14.9,25.9
		H454l4.4-31.5L424.6,737.6z"/>
	<path class="st2" d="M723.3,857.8c-15.7,0-29.1-2.9-40.3-8.7c-11.1-5.9-19.5-13.9-25.2-23.9c-5.7-10.1-8.5-21.3-8.5-33.8
		c0-12.5,2.9-23.6,8.5-33.5c5.7-10.1,14.1-18,25.3-23.9c11.2-5.9,24.7-9,40.5-9s29.3,3,40.3,9c11.2,5.8,19.7,13.8,25.4,23.9
		c5.7,10.1,8.5,21.4,8.5,34.1c0,3.5-0.6,8.9-0.6,8.9H681.2c0.8,3.7,2.1,7.2,3.9,10.5c3.3,5.7,8.1,10.1,14.5,13.4
		c6.5,3.1,14.6,4.7,24.3,4.7c11,0,19.3-1.5,25.2-4.4c4.5-2.4,8.3-5.1,11.3-8.3h34.1c-2.3,5.8-5.8,11.7-10.6,17.4
		c-5.6,6.6-13.4,12.3-23.7,16.9C750.2,855.6,737.9,857.8,723.3,857.8L723.3,857.8z M685.2,772.2c-1.2,2.1-2.5,5.3-3,7.7h41.5h41.5
		c-0.5-2.4-1.7-5.6-3-7.7c-3.3-5.8-8.1-10.3-14.5-13.4c-6.4-3.3-14.4-5-23.9-5c-9.7,0-17.7,1.7-24.1,5
		C693.3,761.9,688.4,766.3,685.2,772.2L685.2,772.2z"/>
	<path class="st1" d="M878.3,825.3c5.7,9.9,14,17.9,25,23.9c11.1,5.8,24.5,8.7,40.1,8.7c13.9,0,26.2-2.4,36.9-7.2
		c10.6-4.8,19.2-11.5,25.4-20.1c6.3-8.6,9.9-18.4,11.1-29.3h-33.7c-1.3,7.3-5.3,13.4-12.2,18.4c-6.8,5-16,7.5-27.5,7.5
		c-8.5,0-15.8-1.6-21.8-4.7c-6-3.3-10.5-7.6-13.7-12.9c-3.1-5.3-4.7-11.2-4.7-17.9c0-6.4,1.6-12.4,4.7-17.6
		c3.1-5.5,7.7-9.8,13.7-12.9c6-3.1,13.2-4.7,21.8-4.7c7.7,0,14.4,1.2,20,3.7c5.7,2.4,10.2,5.4,13.4,9.2c3.3,3.8,5.3,8.1,6.2,12.9
		h33.7c-1.1-11.1-4.9-20.9-11.1-29.3c-6.3-8.6-14.7-15.3-25.4-20.1c-10.6-5-23-7.5-36.9-7.5c-15.7,0-29,3-40.1,9
		c-11,5.8-19.2,13.8-25,23.9c-5.7,10.1-8.5,21.2-8.5,33.5C869.7,803.9,872.6,815.2,878.3,825.3L878.3,825.3z"/>
	<path class="st2" d="M1107.3,857.8c-16.2,0-30-2.9-41.4-8.7c-11.4-5.9-19.9-13.9-25.8-23.9c-5.7-10.1-8.5-21.3-8.5-33.8
		c0-12.5,2.9-23.6,8.5-33.5c5.8-10.1,14.5-18,25.8-23.9c11.4-5.9,25.2-9,41.4-9c16.1,0,29.8,3,41.2,9c11.4,5.8,19.9,13.8,25.6,23.9
		c5.8,9.9,8.7,21.1,8.7,33.5c0,12.5-2.9,23.7-8.7,33.8c-5.7,9.9-14.2,17.9-25.6,23.9C1137.2,854.9,1123.4,857.8,1107.3,857.8z
		 M1107.3,827c9,0,16.5-1.6,22.8-4.7c6.4-3.1,11.1-7.4,14.3-12.6c3.3-5.3,4.9-11.3,4.9-18.1c0-6.4-1.7-12.4-4.9-17.6
		c-3.1-5.5-7.9-9.8-14.3-12.9c-6.3-3.1-13.8-4.7-22.8-4.7c-9.1,0-16.9,1.6-23.3,4.7c-6.3,3.1-11.1,7.5-14.3,12.9
		c-3.1,5.3-4.7,11.1-4.7,17.6c0,6.8,1.6,12.8,4.7,18.1c3.3,5.3,8,9.5,14.3,12.6C1090.5,825.5,1098.3,827,1107.3,827z"/>
	<path class="st1" d="M1199.7,736.6v117.9h33.7v-62.6c0-10.6,2.4-18.9,7.2-24.8c4.9-5.9,11.4-9,19.6-9c5.6,0,10.3,1.3,14.3,4
		c4.1,2.6,7.2,6.5,9.4,11.7c2.3,5,3.4,11,3.4,18.1v62.6h33.5v-62.6c0-10.6,2.4-18.9,7.2-24.8c5-5.9,11.6-9,19.9-9
		c5.6,0,10.3,1.3,14.3,4c4.1,2.6,7.2,6.5,9.4,11.7c2.1,5,3.2,11,3.2,18.1v62.6h33.7V783c0-12.3-1.9-22.6-5.7-31.3
		c-3.7-8.8-9-15.4-15.8-19.9s-14.9-6.7-24.3-6.7c-11.4,0-20.7,3-28,9.2c-7.1,5.9-12.2,14.9-15.2,26.8h-3c-1-6.8-3.3-12.8-6.8-18.1
		c-3.6-5.5-8.4-9.8-14.3-12.9c-5.8-3.3-12.8-5-20.9-5c-11.1,0-20.1,3-27.1,9c-7,5.8-11.9,14.4-14.9,25.9h-3.7l4.4-31.5L1199.7,736.6
		z"/>
</g>
</svg>
